<svg width="24" height="30" viewBox="0 0 24 30" fill="none" xmlns="http://www.w3.org/2000/svg">
<path d="M17 5.31344V1.67969L21.6962 6.37594H18.0625C17.7807 6.37594 17.5105 6.264 17.3112 6.06474C17.1119 5.86548 17 5.59523 17 5.31344Z" fill="#A6A6A6" fill-opacity="0.7"/>
<path d="M18.0625 8.5C17.2171 8.5 16.4064 8.16418 15.8086 7.5664C15.2108 6.96863 14.875 6.15788 14.875 5.3125V0H3.1875C2.34212 0 1.53137 0.335825 0.933597 0.933597C0.335825 1.53137 0 2.34212 0 3.1875V26.5625C0 27.4079 0.335825 28.2186 0.933597 28.8164C1.53137 29.4142 2.34212 29.75 3.1875 29.75H20.1875C21.0329 29.75 21.8436 29.4142 22.4414 28.8164C23.0392 28.2186 23.375 27.4079 23.375 26.5625V8.5H18.0625ZM16.1181 17.9456L10.6888 21.3456C10.3506 21.5552 9.96035 21.6657 9.5625 21.6644C8.99891 21.6644 8.45841 21.4405 8.0599 21.042C7.66138 20.6435 7.4375 20.103 7.4375 19.5394V12.75C7.43863 12.3712 7.54099 11.9996 7.73398 11.6737C7.92697 11.3478 8.20357 11.0793 8.53515 10.8962C8.86672 10.7131 9.24122 10.6219 9.61987 10.6321C9.99851 10.6424 10.3675 10.7536 10.6888 10.9544L16.1181 14.3438C16.4233 14.5349 16.6749 14.8004 16.8493 15.1154C17.0237 15.4304 17.1152 15.7846 17.1152 16.1447C17.1152 16.5048 17.0237 16.8589 16.8493 17.1739C16.6749 17.489 16.4233 17.7545 16.1181 17.9456Z" fill="#A6A6A6" fill-opacity="0.3"/>
</svg>
