<svg width="24" height="30" viewBox="0 0 24 30" fill="none" xmlns="http://www.w3.org/2000/svg">
<path d="M18.0625 6.37313H21.6856L17 1.6875V5.31063C17 5.59242 17.1119 5.86267 17.3112 6.06193C17.5105 6.26118 17.7807 6.37313 18.0625 6.37313Z" fill="#A6A6A6" fill-opacity="0.7"/>
<path d="M18.0625 8.5C17.2171 8.5 16.4064 8.16418 15.8086 7.5664C15.2108 6.96863 14.875 6.15788 14.875 5.3125V0H3.1875C2.34212 0 1.53137 0.335825 0.933597 0.933597C0.335825 1.53137 0 2.34212 0 3.1875V26.5625C0 27.4079 0.335825 28.2186 0.933597 28.8164C1.53137 29.4142 2.34212 29.75 3.1875 29.75H20.1875C21.0329 29.75 21.8436 29.4142 22.4414 28.8164C23.0392 28.2186 23.375 27.4079 23.375 26.5625V8.5H18.0625ZM15.9375 17C15.6557 17 15.3855 16.8881 15.1862 16.6888C14.9869 16.4895 14.875 16.2193 14.875 15.9375C14.875 14.9388 14.5244 14.6731 13.8125 14.2056V21.25C13.7339 22.1626 13.3002 23.0078 12.6047 23.6039C11.9093 24.2 11.0076 24.4993 10.0938 24.4375C9.17988 24.4993 8.27824 24.2 7.58279 23.6039C6.88734 23.0078 6.45365 22.1626 6.375 21.25C6.45365 20.3374 6.88734 19.4922 7.58279 18.8961C8.27824 18.3 9.17988 18.0007 10.0938 18.0625C10.6408 18.0625 11.1825 18.1708 11.6875 18.3812V10.625C11.6875 10.3432 11.7994 10.073 11.9987 9.8737C12.198 9.67444 12.4682 9.5625 12.75 9.5625C13.0318 9.5625 13.302 9.67444 13.5013 9.8737C13.7006 10.073 13.8125 10.3432 13.8125 10.625C13.8125 11.6875 14.1844 11.9 14.9281 12.3994C15.5762 12.7286 16.116 13.2371 16.4833 13.8644C16.8506 14.4916 17.03 15.2112 17 15.9375C17 16.2193 16.8881 16.4895 16.6888 16.6888C16.4895 16.8881 16.2193 17 15.9375 17Z" fill="#A6A6A6" fill-opacity="0.3"/>
</svg>
