<svg width="45" height="45" viewBox="0 0 45 45" fill="none" xmlns="http://www.w3.org/2000/svg">
<path d="M44.3701 14.8468L41.9218 5.04796C41.6215 3.84407 40.5393 3 39.2976 3H6.24083C4.99907 3 3.91693 3.84407 3.61393 5.04796L1.16558 14.8468C1.13853 14.9523 1.125 15.0632 1.125 15.1741C1.125 18.9021 4.00621 21.9375 7.55022 21.9375C9.609 21.9375 11.4459 20.9122 12.6228 19.3214C13.7996 20.9122 15.6365 21.9375 17.6953 21.9375C19.7541 21.9375 21.591 20.9122 22.7679 19.3214C23.9447 20.9122 25.7789 21.9375 27.8404 21.9375C29.9019 21.9375 31.7361 20.9122 32.9129 19.3214C34.0898 20.9122 35.924 21.9375 37.9855 21.9375C41.5295 21.9375 44.4107 18.9021 44.4107 15.1741C44.4107 15.0632 44.3972 14.9523 44.3701 14.8468Z" fill="#DBDBDB"/>
<path d="M38.008 25.4331C36.1703 25.4331 34.4242 24.8718 32.9481 23.8463C29.9957 25.9 25.7804 25.9 22.8281 23.8463C19.8758 25.9 15.6605 25.9 12.7081 23.8463C11.232 24.8718 9.48594 25.4331 7.64815 25.4331C6.32311 25.4331 5.07363 25.1228 3.9375 24.5938V38.9264C3.9375 40.4161 5.1465 41.6251 6.63616 41.6251H17.4308V30.8304H28.2254V41.6251H39.02C40.5097 41.6251 41.7187 40.4161 41.7187 38.9264V24.5938C40.5826 25.1228 39.3331 25.4331 38.008 25.4331Z" fill="#E0E0E0"/>
<rect x="17.373" y="27.3251" width="10.933" height="14.2999" fill="#D4D4D4"/>
<rect x="8.26758" y="30.7156" width="5.36906" height="5.35748" fill="#D4D4D4"/>
<rect x="32.043" y="30.7156" width="5.36906" height="5.35748" fill="#D4D4D4"/>
</svg>
