<svg width="45" height="45" viewBox="0 0 45 45" fill="none" xmlns="http://www.w3.org/2000/svg">
<g clip-path="url(#clip0_21561_17015)">
<path d="M9.77827 6.23511L1.66008 10.5438C1.52104 10.6166 1.38973 10.6996 1.26562 10.7904L22.0246 21.6153L30.7174 17.3157L9.77827 6.23511Z" fill="#DBDBDB"/>
<path d="M44.9966 13.1943L34.6112 18.331V24.118C34.6112 24.8458 34.0211 25.4359 33.2933 25.4359C32.5654 25.4359 31.9753 24.8458 31.9753 24.118V19.6348L23.3281 23.9118V44.8557C23.3552 44.8431 23.3826 44.8315 23.4094 44.8182L43.2887 34.7455C44.3448 34.2174 45.0006 33.1564 45.0006 31.9752V13.3108C45.0006 13.2717 44.998 13.2331 44.9966 13.1943Z" fill="#DBDBDB"/>
<path d="M43.2873 10.5404L23.4162 0.471948L23.408 0.467818C22.5232 0.0273098 21.4718 0.0371536 20.5953 0.494185L12.5918 4.74185L33.6302 15.8749L43.7851 10.8522C43.6309 10.7348 43.4654 10.6294 43.2873 10.5404Z" fill="#DBDBDB"/>
<path d="M0.00624023 13.106C0.00272461 13.1664 0 13.2268 0 13.2878V31.9981C0 33.1549 0.636328 34.2057 1.66078 34.7421L20.5876 44.7873L20.5961 44.7918C20.6276 44.8082 20.6597 44.8227 20.6917 44.8379V23.8925L0.00624023 13.106Z" fill="#DBDBDB"/>
</g>
<defs>
<clipPath id="clip0_21561_17015">
<rect width="45" height="45" fill="white"/>
</clipPath>
</defs>
</svg>
