<svg width="35" height="43" viewBox="0 0 35 43" fill="none" xmlns="http://www.w3.org/2000/svg">
<path fill-rule="evenodd" clip-rule="evenodd" d="M17.0186 22.5959C23.2411 22.5959 28.3165 17.5208 28.3165 11.2981C28.3165 5.07539 23.2411 0 17.0186 0C10.7959 0 5.7207 5.07539 5.7207 11.2981C5.7207 17.5208 10.7959 22.5959 17.0186 22.5959Z" fill="#DBDBDB"/>
<path fill-rule="evenodd" clip-rule="evenodd" d="M28.9853 27.0699C25.9158 24.975 21.6843 23.6792 17.0186 23.6792C12.353 23.6792 8.12156 24.975 5.05197 27.0699C1.93062 29.2003 0 32.1593 0 35.4419V39.3541C0 40.2918 0.380325 41.1409 0.994838 41.7554C1.60932 42.3698 2.45832 42.75 3.39606 42.75H30.6413C31.5791 42.75 32.428 42.3698 33.0425 41.7554C33.6738 41.1241 34.0469 40.2417 34.037 39.3461V35.4419C34.037 32.1593 32.1066 29.2003 28.9853 27.0699Z" fill="#DBDBDB"/>
</svg>
