<svg width="45" height="45" viewBox="0 0 45 45" fill="none" xmlns="http://www.w3.org/2000/svg">
<path d="M33.0443 24.7807L31.69 20.8308C31.6474 20.707 31.5782 20.5967 31.4908 20.5032C31.4299 21.4146 30.6941 22.1595 29.7594 22.2075C29.5284 22.219 29.3008 22.225 29.0829 22.225H29.0622C28.4408 22.2248 27.8501 22.1791 27.2893 22.0961C27.2866 22.2108 27.3043 22.3278 27.3473 22.4418C27.5257 22.9144 28.0533 23.1525 28.5262 22.9742V22.9738L30.2653 22.3165L34.3921 34.3517C35.1065 33.5709 36.0091 32.9777 37.0391 32.6284C37.7013 32.4039 38.3894 32.2896 39.0829 32.2896C41.2925 32.2896 43.3003 33.4292 44.4503 35.2353C45.1345 35.2026 45.3097 34.802 44.2102 33.3693C42.4375 31.0593 39.9716 30.6115 38.2373 30.6347C38.1285 30.3413 38.016 30.0347 37.8987 29.7105C36.836 26.7721 34.4492 25.3726 33.0443 24.7807Z" fill="#DBDBDB"/>
<path d="M24.7529 6.65781C24.7529 6.67007 24.7533 6.68269 24.7544 6.69678C24.8012 7.58186 25.0026 8.19837 25.0055 8.80995C25.0063 9.12534 24.9454 9.44019 24.7738 9.75869C24.7571 9.78979 24.7302 9.8165 24.6986 9.83333C24.1951 10.1026 23.6541 10.1871 23.1039 10.1871C22.6231 10.1868 22.1322 10.124 21.6368 10.0593C21.1745 9.99907 20.7664 9.90394 20.4023 9.77442C20.9614 10.4978 21.7634 11.0406 22.7233 11.2639C24.9369 11.7795 27.1489 10.4028 27.665 8.18941C27.8929 7.21012 27.75 6.23119 27.3285 5.39917C26.5917 5.48954 25.5997 5.67303 25.0992 6.05959C24.8707 6.23503 24.7549 6.41944 24.7529 6.65781Z" fill="#DBDBDB"/>
<path d="M18.2169 15.2759L18.2158 15.2734L18.2079 15.2565C18.0054 14.8118 17.9886 14.3145 18.16 13.8572C18.3314 13.3998 18.6711 13.0363 19.1157 12.8344C19.3557 12.7248 19.6104 12.6697 19.8723 12.6697C20.5882 12.6697 21.242 13.0905 21.5382 13.7418L21.5472 13.7599C21.5607 13.7875 21.5832 13.8319 21.6147 13.8907C21.6784 14.0107 21.7857 14.2019 21.935 14.4347C22.1096 14.7081 22.3624 15.0703 22.6909 15.464C23.0208 13.735 22.3256 11.828 20.8749 11.4667C19.3131 11.0772 17.0492 11.9255 16.1281 14.604C14.8831 18.2948 14.6155 20.697 15.0886 24.7611C15.5461 27.1156 16.9279 27.7806 18.3201 27.9419C18.3263 27.943 18.3322 27.9449 18.3384 27.9458L25.2757 29.0244L27.8744 35.6114C28.2292 36.5108 29.0906 37.0596 30.0022 37.0596C30.2814 37.0596 30.5655 37.0082 30.841 36.8995C32.0155 36.436 32.5922 35.1078 32.1289 33.9333L29.0493 26.1275C28.7518 25.3742 28.0733 24.8314 27.2735 24.707L21.5256 23.8129C21.4958 22.4641 21.6443 21.0671 21.8567 19.7362C21.4365 19.4058 21.0642 19.0694 20.7404 18.7458C19.196 17.2082 18.4187 15.7013 18.2169 15.2759Z" fill="#DBDBDB"/>
<path d="M29.0632 21.8593H29.0839C29.3014 21.8593 29.5206 21.8533 29.7416 21.8421C30.5489 21.8008 31.17 21.1135 31.1288 20.3063C31.0877 19.499 30.3998 18.8781 29.593 18.9192C29.418 18.9282 29.2484 18.9324 29.0839 18.9324C26.28 18.9264 24.3752 17.6974 23.0616 16.4084C22.4133 15.7659 21.9356 15.1133 21.6281 14.6324C21.4742 14.392 21.3628 14.194 21.2928 14.0634C21.258 13.9979 21.2331 13.9492 21.219 13.9196C21.213 13.9075 21.2088 13.8986 21.206 13.8935C20.8711 13.1577 20.0037 12.8326 19.2681 13.1675C18.5322 13.502 18.2073 14.3695 18.5419 15.1053C18.5905 15.2061 19.3267 16.8216 21.0006 18.487C22.6564 20.1428 25.3502 21.8591 29.0632 21.8593Z" fill="#DBDBDB"/>
<path d="M13.507 26.8437V15.4518C13.507 14.9127 13.07 14.4755 12.5308 14.4755H0.976181C0.43705 14.4756 0 14.9129 0 15.452V26.8438C0 27.3831 0.43705 27.8202 0.976181 27.8202H12.5308C13.07 27.8202 13.507 27.3832 13.507 26.8437Z" fill="#DBDBDB"/>
<path d="M17.1505 36.9062C16.1838 34.0556 13.0897 32.5281 10.2388 33.4947C7.38816 34.4612 5.86059 37.5559 6.82725 40.4065C7.79374 43.2571 10.888 44.7847 13.739 43.8182C16.5896 42.8515 18.117 39.7569 17.1505 36.9062ZM12.6801 40.6955C11.5539 41.0775 10.3312 40.4736 9.94953 39.3478C9.56791 38.2216 10.1714 36.9988 11.2973 36.6172C12.4235 36.2352 13.6463 36.8391 14.0279 37.9649C14.41 39.0911 13.8065 40.3135 12.6801 40.6955Z" fill="#DBDBDB"/>
<path d="M36.2528 24.4739C37.7933 24.4739 37.7933 18.8942 36.2528 18.8942C34.712 18.8942 33.4629 20.1431 33.4629 21.684C33.4629 23.225 34.712 24.4739 36.2528 24.4739Z" fill="#DBDBDB"/>
<path d="M32.7896 37.6992H21.1253C20.117 35.6647 19.7701 33.5877 19.6552 32.2367C19.9547 32.145 20.1738 31.8695 20.1738 31.54V29.5277C20.1738 29.1235 19.8462 28.7959 19.4421 28.7959H4.53227C4.12815 28.7959 3.8005 29.1235 3.8005 29.5277V31.54C3.8005 31.9442 4.12815 32.2718 4.53227 32.2718H4.61295C3.81824 34.2218 2.5918 37.602 2.5918 39.8945H5.74609C5.47168 38.5255 5.65279 37.1121 6.28101 35.8394C7.03382 34.3149 8.33491 33.1743 9.9448 32.6287C10.6076 32.4037 11.2951 32.2901 11.989 32.2901C14.7178 32.2901 17.1399 34.027 18.0164 36.6128C18.3878 37.7078 18.4408 38.8347 18.2288 39.8945H19.514H22.5325H32.8413C32.6952 39.1658 32.6781 38.4251 32.7896 37.6992Z" fill="#DBDBDB"/>
<path d="M37.3325 33.4946C34.4819 34.4611 32.9543 37.5558 33.921 40.4064C34.8875 43.257 37.9818 44.7846 40.8328 43.8181C43.6834 42.8516 45.2109 39.7569 44.2443 36.9063C43.2778 34.0557 40.1835 32.5282 37.3325 33.4946ZM39.7741 40.6956C38.6479 41.0776 37.4251 40.4737 37.0435 39.3479C36.6618 38.2217 37.2654 36.9989 38.3912 36.6173C39.5174 36.2353 40.7402 36.8392 41.1218 37.965C41.5038 39.0912 40.9003 40.3136 39.7741 40.6956Z" fill="#DBDBDB"/>
<path d="M27.7831 4.9839C27.705 4.42831 27.5296 3.89924 27.2722 3.41627C26.5731 2.10475 25.275 1.13973 23.6894 0.932276C23.4803 0.904835 23.2725 0.891846 23.0671 0.891846C23.0669 0.891846 23.0667 0.891846 23.0663 0.891846C20.7148 0.891846 18.6695 2.63693 18.357 5.03275C18.3299 5.24112 18.3164 5.44821 18.3164 5.65256C18.3164 5.93539 18.3417 6.21364 18.3903 6.48568C18.5709 7.49936 18.876 8.22729 19.3817 8.73587C19.887 9.24408 20.6109 9.55582 21.6833 9.69668C22.1776 9.76145 22.6547 9.82163 23.1027 9.82108C23.5978 9.82108 24.0546 9.74882 24.4752 9.53679C24.5966 9.29201 24.6378 9.06517 24.6385 8.81014C24.6415 8.28693 24.44 7.64645 24.3881 6.71783C24.3866 6.69807 24.3863 6.67813 24.3859 6.65801C24.3844 6.28133 24.5933 5.97874 24.8778 5.76781C25.1636 5.55304 25.5322 5.40558 25.9208 5.29436C26.5925 5.10336 27.3313 5.0258 27.7831 4.9839Z" fill="#DBDBDB"/>
<path d="M33.0443 24.7807L31.69 20.8308C31.6474 20.707 31.5782 20.5967 31.4908 20.5032C31.4299 21.4146 30.6941 22.1595 29.7594 22.2075C29.5284 22.219 29.3008 22.225 29.0829 22.225H29.0622C28.4408 22.2248 27.8501 22.1791 27.2893 22.0961C27.2866 22.2108 27.3043 22.3278 27.3473 22.4418C27.5257 22.9144 28.0533 23.1525 28.5262 22.9742V22.9738L30.2653 22.3165L34.3921 34.3517C35.1065 33.5709 36.0091 32.9777 37.0391 32.6284C37.7013 32.4039 38.3894 32.2896 39.0829 32.2896C41.2925 32.2896 43.3003 33.4292 44.4503 35.2353C45.1345 35.2026 45.3097 34.802 44.2102 33.3693C42.4375 31.0593 39.9716 30.6115 38.2373 30.6347C38.1285 30.3413 38.016 30.0347 37.8987 29.7105C36.836 26.7721 34.4492 25.3726 33.0443 24.7807Z" fill="#DBDBDB"/>
<path d="M24.7529 6.65781C24.7529 6.67007 24.7533 6.68269 24.7544 6.69678C24.8012 7.58186 25.0026 8.19837 25.0055 8.80995C25.0063 9.12534 24.9454 9.44019 24.7738 9.75869C24.7571 9.78979 24.7302 9.8165 24.6986 9.83333C24.1951 10.1026 23.6541 10.1871 23.1039 10.1871C22.6231 10.1868 22.1322 10.124 21.6368 10.0593C21.1745 9.99907 20.7664 9.90394 20.4023 9.77442C20.9614 10.4978 21.7634 11.0406 22.7233 11.2639C24.9369 11.7795 27.1489 10.4028 27.665 8.18941C27.8929 7.21012 27.75 6.23119 27.3285 5.39917C26.5917 5.48954 25.5997 5.67303 25.0992 6.05959C24.8707 6.23503 24.7549 6.41944 24.7529 6.65781Z" fill="#DBDBDB"/>
<path d="M18.2169 15.2759L18.2158 15.2734L18.2079 15.2565C18.0054 14.8118 17.9886 14.3145 18.16 13.8572C18.3314 13.3998 18.6711 13.0363 19.1157 12.8344C19.3557 12.7248 19.6104 12.6697 19.8723 12.6697C20.5882 12.6697 21.242 13.0905 21.5382 13.7418L21.5472 13.7599C21.5607 13.7875 21.5832 13.8319 21.6147 13.8907C21.6784 14.0107 21.7857 14.2019 21.935 14.4347C22.1096 14.7081 22.3624 15.0703 22.6909 15.464C23.0208 13.735 22.3256 11.828 20.8749 11.4667C19.3131 11.0772 17.0492 11.9255 16.1281 14.604C14.8831 18.2948 14.6155 20.697 15.0886 24.7611C15.5461 27.1156 16.9279 27.7806 18.3201 27.9419C18.3263 27.943 18.3322 27.9449 18.3384 27.9458L25.2757 29.0244L27.8744 35.6114C28.2292 36.5108 29.0906 37.0596 30.0022 37.0596C30.2814 37.0596 30.5655 37.0082 30.841 36.8995C32.0155 36.436 32.5922 35.1078 32.1289 33.9333L29.0493 26.1275C28.7518 25.3742 28.0733 24.8314 27.2735 24.707L21.5256 23.8129C21.4958 22.4641 21.6443 21.0671 21.8567 19.7362C21.4365 19.4058 21.0642 19.0694 20.7404 18.7458C19.196 17.2082 18.4187 15.7013 18.2169 15.2759Z" fill="#DBDBDB"/>
<path d="M29.0632 21.8593H29.0839C29.3014 21.8593 29.5206 21.8533 29.7416 21.8421C30.5489 21.8008 31.17 21.1135 31.1288 20.3063C31.0877 19.499 30.3998 18.8781 29.593 18.9192C29.418 18.9282 29.2484 18.9324 29.0839 18.9324C26.28 18.9264 24.3752 17.6974 23.0616 16.4084C22.4133 15.7659 21.9356 15.1133 21.6281 14.6324C21.4742 14.392 21.3628 14.194 21.2928 14.0634C21.258 13.9979 21.2331 13.9492 21.219 13.9196C21.213 13.9075 21.2088 13.8986 21.206 13.8935C20.8711 13.1577 20.0037 12.8326 19.2681 13.1675C18.5322 13.502 18.2073 14.3695 18.5419 15.1053C18.5905 15.2061 19.3267 16.8216 21.0006 18.487C22.6564 20.1428 25.3502 21.8591 29.0632 21.8593Z" fill="#DBDBDB"/>
<path d="M13.507 26.8437V15.4518C13.507 14.9127 13.07 14.4755 12.5308 14.4755H0.976181C0.43705 14.4756 0 14.9129 0 15.452V26.8438C0 27.3831 0.43705 27.8202 0.976181 27.8202H12.5308C13.07 27.8202 13.507 27.3832 13.507 26.8437Z" fill="#DBDBDB"/>
<path d="M17.1505 36.9062C16.1838 34.0556 13.0897 32.5281 10.2388 33.4947C7.38816 34.4612 5.86059 37.5559 6.82725 40.4065C7.79374 43.2571 10.888 44.7847 13.739 43.8182C16.5896 42.8515 18.117 39.7569 17.1505 36.9062ZM12.6801 40.6955C11.5539 41.0775 10.3312 40.4736 9.94953 39.3478C9.56791 38.2216 10.1714 36.9988 11.2973 36.6172C12.4235 36.2352 13.6463 36.8391 14.0279 37.9649C14.41 39.0911 13.8065 40.3135 12.6801 40.6955Z" fill="#DBDBDB"/>
<path d="M36.2528 24.4739C37.7933 24.4739 37.7933 18.8942 36.2528 18.8942C34.712 18.8942 33.4629 20.1431 33.4629 21.684C33.4629 23.225 34.712 24.4739 36.2528 24.4739Z" fill="#DBDBDB"/>
<path d="M32.7896 37.6992H21.1253C20.117 35.6647 19.7701 33.5877 19.6552 32.2367C19.9547 32.145 20.1738 31.8695 20.1738 31.54V29.5277C20.1738 29.1235 19.8462 28.7959 19.4421 28.7959H4.53227C4.12815 28.7959 3.8005 29.1235 3.8005 29.5277V31.54C3.8005 31.9442 4.12815 32.2718 4.53227 32.2718H4.61295C3.81824 34.2218 2.5918 37.602 2.5918 39.8945H5.74609C5.47168 38.5255 5.65279 37.1121 6.28101 35.8394C7.03382 34.3149 8.33491 33.1743 9.9448 32.6287C10.6076 32.4037 11.2951 32.2901 11.989 32.2901C14.7178 32.2901 17.1399 34.027 18.0164 36.6128C18.3878 37.7078 18.4408 38.8347 18.2288 39.8945H19.514H22.5325H32.8413C32.6952 39.1658 32.6781 38.4251 32.7896 37.6992Z" fill="#DBDBDB"/>
<path d="M37.3325 33.4946C34.4819 34.4611 32.9543 37.5558 33.921 40.4064C34.8875 43.257 37.9818 44.7846 40.8328 43.8181C43.6834 42.8516 45.2109 39.7569 44.2443 36.9063C43.2778 34.0557 40.1835 32.5282 37.3325 33.4946ZM39.7741 40.6956C38.6479 41.0776 37.4251 40.4737 37.0435 39.3479C36.6618 38.2217 37.2654 36.9989 38.3912 36.6173C39.5174 36.2353 40.7402 36.8392 41.1218 37.965C41.5038 39.0912 40.9003 40.3136 39.7741 40.6956Z" fill="#DBDBDB"/>
<path d="M27.7831 4.9839C27.705 4.42831 27.5296 3.89924 27.2722 3.41627C26.5731 2.10475 25.275 1.13973 23.6894 0.932276C23.4803 0.904835 23.2725 0.891846 23.0671 0.891846C23.0669 0.891846 23.0667 0.891846 23.0663 0.891846C20.7148 0.891846 18.6695 2.63693 18.357 5.03275C18.3299 5.24112 18.3164 5.44821 18.3164 5.65256C18.3164 5.93539 18.3417 6.21364 18.3903 6.48568C18.5709 7.49936 18.876 8.22729 19.3817 8.73587C19.887 9.24408 20.6109 9.55582 21.6833 9.69668C22.1776 9.76145 22.6547 9.82163 23.1027 9.82108C23.5978 9.82108 24.0546 9.74882 24.4752 9.53679C24.5966 9.29201 24.6378 9.06517 24.6385 8.81014C24.6415 8.28693 24.44 7.64645 24.3881 6.71783C24.3866 6.69807 24.3863 6.67813 24.3859 6.65801C24.3844 6.28133 24.5933 5.97874 24.8778 5.76781C25.1636 5.55304 25.5322 5.40558 25.9208 5.29436C26.5925 5.10336 27.3313 5.0258 27.7831 4.9839Z" fill="#DBDBDB"/>
</svg>
