<svg width="12" height="12" viewBox="0 0 12 12" fill="none" xmlns="http://www.w3.org/2000/svg">
<path d="M9.27395 1H4.72605C3.7744 1 3 1.7744 3 2.72605V3H2.72605C1.7744 3 1 3.7744 1 4.72605V9.2739C1 10.2256 1.7744 11 2.72605 11H7.2739C8.14815 11 8.865 10.3441 8.9771 9.5H9.2739C10.2256 9.5 11 8.7256 11 7.77395V2.72605C11 1.7744 10.2256 1 9.27395 1ZM10 7.77395C10 8.1743 9.6743 8.5 9.27395 8.5H9V4.72605C9 3.7744 8.2256 3 7.27395 3H4V2.72605C4 2.3257 4.3257 2 4.72605 2H9.2739C9.6743 2 10 2.3257 10 2.72605V7.77395Z" fill="#1455AC"/>
</svg>
