<svg width="30" height="36" viewBox="0 0 30 36" fill="none" xmlns="http://www.w3.org/2000/svg">
<path d="M25.6333 0.666687H4.36666C2.14173 0.666687 0.333328 2.44769 0.333328 4.63891V31.3611C0.333328 33.5524 2.14173 35.3334 4.36666 35.3334H25.6333C27.8583 35.3334 29.6667 33.5524 29.6667 31.3611V4.63891C29.6667 2.44769 27.8583 0.666687 25.6333 0.666687ZM13.1667 19.4445V12.332C16.6867 12.8592 19.4 15.8334 19.4 19.4445C19.4 23.4268 16.1103 26.6667 12.0667 26.6667C10.4416 26.6667 8.95293 26.1265 7.73559 25.241L12.844 20.21C13.0508 20.0078 13.1667 19.7319 13.1667 19.4445ZM10.9667 12.332V18.9967L6.18093 23.7099C5.28186 22.511 4.73333 21.0449 4.73333 19.4445C4.73333 15.8334 7.44666 12.8592 10.9667 12.332ZM24.1667 31.3611H5.83333C5.22613 31.3611 4.73333 30.8758 4.73333 30.2778C4.73333 29.6798 5.22613 29.1945 5.83333 29.1945H24.1667C24.7739 29.1945 25.2667 29.6798 25.2667 30.2778C25.2667 30.8758 24.7739 31.3611 24.1667 31.3611ZM24.1667 26.6667H21.9667C21.3595 26.6667 20.8667 26.1814 20.8667 25.5834C20.8667 24.9854 21.3595 24.5 21.9667 24.5H24.1667C24.7739 24.5 25.2667 24.9854 25.2667 25.5834C25.2667 26.1814 24.7739 26.6667 24.1667 26.6667ZM24.1667 22.6945H21.9667C21.3595 22.6945 20.8667 22.2091 20.8667 21.6111C20.8667 21.0131 21.3595 20.5278 21.9667 20.5278H24.1667C24.7739 20.5278 25.2667 21.0131 25.2667 21.6111C25.2667 22.2091 24.7739 22.6945 24.1667 22.6945ZM24.1667 18.3611H21.9667C21.3595 18.3611 20.8667 17.8758 20.8667 17.2778C20.8667 16.6798 21.3595 16.1945 21.9667 16.1945H24.1667C24.7739 16.1945 25.2667 16.6798 25.2667 17.2778C25.2667 17.8758 24.7739 18.3611 24.1667 18.3611ZM24.1667 14.3889H21.9667C21.3595 14.3889 20.8667 13.9036 20.8667 13.3056C20.8667 12.7076 21.3595 12.2222 21.9667 12.2222H24.1667C24.7739 12.2222 25.2667 12.7076 25.2667 13.3056C25.2667 13.9036 24.7739 14.3889 24.1667 14.3889Z" fill="#1455AC"/>
</svg>
