<svg width="16" height="16" viewBox="0 0 16 16" fill="none" xmlns="http://www.w3.org/2000/svg">
<path d="M13.3333 0C11.863 0 10.6667 1.19628 10.6667 2.66666C10.6667 3.94209 12.5563 6.5235 12.9991 7.11103C12.999 7.30081 12.9991 7.48716 12.9945 7.65819C12.9896 7.84209 13.1348 7.99544 13.319 8.00031C13.322 8.00031 13.3249 8.00031 13.3282 8.00031C13.5078 8.00031 13.6563 7.85675 13.6612 7.67578C13.6657 7.50028 13.6656 7.30872 13.6657 7.11353C14.1056 6.53003 16 3.94359 16 2.66666C16 1.19628 14.8037 0 13.3333 0ZM13.3333 3.33334C12.9658 3.33334 12.6667 3.03419 12.6667 2.66669C12.6667 2.29919 12.9658 2.00003 13.3333 2.00003C13.7008 2.00003 14 2.29916 14 2.66666C14 3.03419 13.7008 3.33334 13.3333 3.33334Z" fill="white"/>
<path d="M10.2031 9.6071C9.653 9.91928 9.34735 10.4613 9.16503 10.8415C9.08528 11.0075 9.15525 11.2067 9.32128 11.2861C9.36785 11.3086 9.417 11.319 9.46516 11.319C9.5895 11.319 9.70866 11.2493 9.76594 11.1299C9.99738 10.6471 10.2337 10.3564 10.5325 10.1865C10.6924 10.0957 10.7487 9.89222 10.6575 9.73206C10.5671 9.57194 10.3643 9.51563 10.2031 9.6071Z" fill="white"/>
<path d="M7.16958 14.4463C6.83558 14.711 6.45605 14.9102 6.00877 15.0557C5.83365 15.1127 5.73793 15.3008 5.79489 15.4759C5.8408 15.6166 5.97133 15.7061 6.11196 15.7061C6.14614 15.7061 6.18096 15.7009 6.21514 15.6898C6.73174 15.5218 7.19202 15.2793 7.58364 14.9691C7.72786 14.8545 7.75227 14.6449 7.63802 14.5007C7.52277 14.3568 7.31346 14.3311 7.16958 14.4463Z" fill="white"/>
<path d="M9.04915 12.0137C8.87662 11.9466 8.68456 12.0323 8.61784 12.2041C8.46843 12.5902 8.28159 13.0404 8.02962 13.4528C7.93359 13.61 7.9834 13.8151 8.14031 13.9112C8.19468 13.9444 8.25456 13.96 8.31381 13.96C8.42612 13.96 8.53581 13.9034 8.59865 13.8005C8.87796 13.3428 9.07943 12.8584 9.23959 12.445C9.30599 12.2734 9.22071 12.0804 9.04915 12.0137Z" fill="white"/>
<path d="M13.2096 8.78192C13.0583 8.67939 12.8503 8.71877 12.7467 8.87111C12.637 9.03323 12.4124 9.2562 11.733 9.31708C11.5498 9.33367 11.4143 9.49545 11.4309 9.67905C11.4466 9.85223 11.5921 9.98242 11.7627 9.98242C11.7728 9.98242 11.7828 9.98211 11.7929 9.98111C12.5146 9.91633 13.0071 9.67545 13.2988 9.24477C13.402 9.09245 13.362 8.88511 13.2096 8.78192Z" fill="white"/>
<path d="M4.78984 15.3377C5.84162 14.2161 8 11.6357 8 9.33337C8 7.09053 6.24284 5.33337 4 5.33337C1.75716 5.33337 0 7.09053 0 9.33337C0 12.2901 3.56463 15.7129 3.76384 15.9018C3.76384 15.9018 3.76466 15.9026 3.76503 15.903C3.76613 15.904 3.77031 15.9081 3.77119 15.9089C3.78497 15.922 3.80216 15.9281 3.81744 15.9383C3.83634 15.9511 3.85344 15.9661 3.87484 15.9748C3.915 15.9911 3.95731 16 4 16C4.24284 16 4.47363 15.9916 4.69238 15.975C4.87597 15.961 5.01366 15.8011 4.99966 15.6175C4.98966 15.4862 4.90462 15.3837 4.78984 15.3377ZM4 11.3334C2.89713 11.3334 2 10.4362 2 9.33337C2 8.2305 2.89713 7.33337 4 7.33337C5.10287 7.33337 6 8.2305 6 9.33337C6 10.4362 5.10287 11.3334 4 11.3334Z" fill="white"/>
</svg>
