<svg width="16" height="16" viewBox="0 0 16 16" fill="none" xmlns="http://www.w3.org/2000/svg">
<g clip-path="url(#clip0_20951_49405)">
<path d="M8.9375 0.96875H10.8125V4.25H8.9375V0.96875Z" fill="white"/>
<path d="M15.5312 0.96875H11.75V4.71875C11.75 4.97762 11.5401 5.1875 11.2812 5.1875H8.46875C8.20988 5.1875 8 4.97762 8 4.71875V0.96875H4.25C3.99112 0.96875 3.78125 1.17862 3.78125 1.4375V7.08734C3.93559 7.06475 4.09219 7.05303 4.25 7.05303C5.11394 7.05303 5.94275 7.40016 6.54969 7.99997H8.46875C9.50262 7.99997 10.3438 8.84109 10.3438 9.87497C10.3438 10.9088 9.50262 11.75 8.46875 11.75H11.75C12.6221 11.75 13.357 12.3484 13.5657 13.1562H15.5312C15.7901 13.1562 16 12.9463 16 12.6875V1.4375C16 1.17862 15.7901 0.96875 15.5312 0.96875Z" fill="white"/>
<path d="M11.75 12.6875H7.53125C6.49572 12.6875 5.65625 11.848 5.65625 10.8125H8.46875C8.98653 10.8125 9.40625 10.3928 9.40625 9.87498C9.40625 9.3572 8.98653 8.93748 8.46875 8.93748H6.125C5.68584 8.34201 4.98991 7.99054 4.25 7.99054C3.51009 7.99054 2.81416 8.34201 2.375 8.93748H1.90625V8.62498C1.90625 8.3661 1.69638 8.15623 1.4375 8.15623H0.46875C0.209875 8.15623 0 8.3661 0 8.62498V14.5625C0 14.8214 0.209875 15.0312 0.46875 15.0312H1.4375C1.69638 15.0312 1.90625 14.8214 1.90625 14.5625V13.625H2.375L5.3125 14.5625H11.75C12.2678 14.5625 12.6875 14.1428 12.6875 13.625C12.6875 13.1072 12.2678 12.6875 11.75 12.6875Z" fill="white"/>
</g>
<defs>
<clipPath id="clip0_20951_49405">
<rect width="16" height="16" fill="white"/>
</clipPath>
</defs>
</svg>
