<svg width="16" height="16" viewBox="0 0 16 16" fill="none" xmlns="http://www.w3.org/2000/svg">
<path d="M10 6.83333C7.88601 6.83333 6.16667 8.55333 6.16667 10.6667C6.16667 12.78 7.88601 14.5 10 14.5C12.114 14.5 13.8333 12.78 13.8333 10.6667C13.8333 8.55333 12.114 6.83333 10 6.83333ZM11.3033 11.1667H10C9.72401 11.1667 9.50001 10.9427 9.50001 10.6667V9.31C9.50001 9.034 9.72401 8.81 10 8.81C10.276 8.81 10.5 9.034 10.5 9.31V10.1667H11.3033C11.5793 10.1667 11.8033 10.3907 11.8033 10.6667C11.8033 10.9427 11.5793 11.1667 11.3033 11.1667ZM10.6667 1.5H4.00001C2.98667 1.5 2.16667 2.32 2.16667 3.33333V12C2.16667 13.0133 2.98667 13.8333 4.00001 13.8333H6.36001C5.61334 12.9867 5.16667 11.88 5.16667 10.6667C5.16667 8 7.33334 5.83333 10 5.83333C10.92 5.83333 11.7733 6.08667 12.5 6.54V3.33333C12.5 2.32 11.68 1.5 10.6667 1.5ZM5.33334 8.5H4.66667C4.39334 8.5 4.16667 8.27333 4.16667 8C4.16667 7.72667 4.39334 7.5 4.66667 7.5H5.33334C5.60667 7.5 5.83334 7.72667 5.83334 8C5.83334 8.27333 5.60667 8.5 5.33334 8.5ZM7.33334 6.5H4.66667C4.39334 6.5 4.16667 6.27333 4.16667 6C4.16667 5.72667 4.39334 5.5 4.66667 5.5H7.33334C7.60667 5.5 7.83334 5.72667 7.83334 6C7.83334 6.27333 7.60667 6.5 7.33334 6.5ZM10 4.5H4.66667C4.39334 4.5 4.16667 4.27333 4.16667 4C4.16667 3.72667 4.39334 3.5 4.66667 3.5H10C10.2733 3.5 10.5 3.72667 10.5 4C10.5 4.27333 10.2733 4.5 10 4.5Z" fill="white"/>
</svg>
