<svg width="97" height="100" viewBox="0 0 97 100" fill="none" xmlns="http://www.w3.org/2000/svg">
<g clip-path="url(#clip0_10645_6186)">
<path d="M71.875 21.875V89.0625C71.875 93.375 68.375 96.875 64.0625 96.875H7.8125C3.5 96.875 0 93.375 0 89.0625V7.8125C0 3.5 3.5 0 7.8125 0H50V18.75C50 20.4688 51.4062 21.875 53.125 21.875H71.875Z" fill="#82C6FF"/>
<path d="M29.6875 84.375H12.5C10.775 84.375 9.375 82.975 9.375 81.25C9.375 79.525 10.775 78.125 12.5 78.125H29.6875C31.4125 78.125 32.8125 79.525 32.8125 81.25C32.8125 82.975 31.4125 84.375 29.6875 84.375Z" fill="#F2F2FD"/>
<path d="M34.375 56.25H12.5C10.775 56.25 9.375 54.85 9.375 53.125C9.375 51.4 10.775 50 12.5 50H34.375C36.1 50 37.5 51.4 37.5 53.125C37.5 54.85 36.1 56.25 34.375 56.25Z" fill="#F2F2FD"/>
<path d="M50 43.75H12.5C10.775 43.75 9.375 42.35 9.375 40.625C9.375 38.9 10.775 37.5 12.5 37.5H50C51.725 37.5 53.125 38.9 53.125 40.625C53.125 42.35 51.725 43.75 50 43.75Z" fill="#F2F2FD"/>
<path d="M40.625 15.625V28.125C40.625 29.8438 39.2188 31.25 37.5 31.25H12.5C10.7812 31.25 9.375 29.8438 9.375 28.125V15.625C9.375 13.9062 10.7812 12.5 12.5 12.5H37.5C39.2188 12.5 40.625 13.9062 40.625 15.625Z" fill="white"/>
<path d="M71.875 21.875H53.125C51.3984 21.875 50 20.4766 50 18.75V0C50.8281 0 51.625 0.328125 52.2031 0.921875L70.9531 19.6719C71.5469 20.25 71.875 21.0469 71.875 21.875Z" fill="#4AA2FF"/>
<path d="M70.0734 72.4188C69.2328 72.0735 68.5859 71.3797 68.2984 70.5172L59.8641 45.2125C48.7047 48.9469 40.625 59.4828 40.625 71.875C40.625 87.375 53.25 100 68.75 100C80.4625 100 90.5234 92.786 94.7453 82.5766L70.0734 72.4188Z" fill="#1E49E5"/>
<path d="M96.4063 66.6781C97.425 72.3187 96.7453 77.7937 94.75 82.5781L70.0734 72.4203C69.2328 72.0749 68.5859 71.3812 68.2984 70.5187L59.8594 45.2031C62.5172 44.2968 65.3437 43.8015 68.2859 43.7531C81.8875 43.5359 93.9891 53.2921 96.4063 66.6781Z" fill="#F0AE29"/>
</g>
<defs>
<clipPath id="clip0_10645_6186">
<rect width="97" height="100" fill="white"/>
</clipPath>
</defs>
</svg>
