<svg width="22" height="24" viewBox="0 0 22 24" fill="none" xmlns="http://www.w3.org/2000/svg">
<path fill-rule="evenodd" clip-rule="evenodd" d="M2.46753 5.99968H5.38962V7.5864C5.38962 7.86296 5.61382 8.08716 5.89039 8.08716C6.16695 8.08716 6.39115 7.86296 6.39115 7.5864V5.99968H11.6359V7.5864C11.6359 7.86296 11.8601 8.08716 12.1367 8.08716C12.4132 8.08716 12.6374 7.86296 12.6374 7.5864V5.99968H15.5595C15.8841 5.99968 16.1531 6.24507 16.1828 6.56832L16.6539 11.6934C16.431 11.6702 16.2049 11.6582 15.9759 11.6582C12.3975 11.6582 9.49657 14.5591 9.49657 18.1375C9.49657 19.0177 9.6724 19.8566 9.99026 20.6217H1.89617C1.53893 20.6217 1.23139 20.486 0.990636 20.222C0.749839 19.9581 0.64287 19.6395 0.675542 19.2837L1.84423 6.56832C1.87395 6.24507 2.14287 5.99968 2.46753 5.99968ZM5.38962 5.91723V4.13204C5.38962 3.13496 5.79715 2.22887 6.45373 1.57229C7.11031 0.91571 8.0164 0.508179 9.01348 0.508179C10.0106 0.508179 10.9167 0.91571 11.5732 1.57229C12.2298 2.22887 12.6373 3.13501 12.6373 4.13204V5.91723H11.6359V4.13204C11.6359 3.41143 11.3407 2.75588 10.8651 2.28038C10.3896 1.80483 9.73414 1.50966 9.01348 1.50966C8.29287 1.50966 7.63737 1.80483 7.16182 2.28038C6.68628 2.75588 6.3911 3.41138 6.3911 4.13204V5.91723H5.38962ZM15.9759 12.7832C13.0188 12.7832 10.6215 15.1804 10.6215 18.1375C10.6215 21.0946 13.0188 23.4919 15.9759 23.4919C18.933 23.4919 21.3302 21.0946 21.3302 18.1375C21.3302 15.1804 18.933 12.7832 15.9759 12.7832ZM13.3587 18.4545L14.9606 19.9257C15.185 20.1322 15.5325 20.1212 15.7436 19.9036L18.6019 17.1668C18.8252 16.952 18.8321 16.5969 18.6173 16.3736C18.4025 16.1503 18.0474 16.1434 17.8241 16.3582L15.333 18.7434L14.1189 17.6284C13.8908 17.4185 13.5356 17.4332 13.3257 17.6613C13.1157 17.8894 13.1305 18.2446 13.3587 18.4545Z" fill="#D89D4B"/>
</svg>
