<svg width="36" height="40" viewBox="0 0 36 40" fill="none" xmlns="http://www.w3.org/2000/svg">
<path d="M13.9917 12.5H15.3417L14.6667 10.7084L13.9917 12.5Z" fill="#1455AC"/>
<path d="M18.8333 28.3334C18.8333 25.9022 19.7991 23.5706 21.5182 21.8516C23.2373 20.1325 25.5688 19.1667 28 19.1667V4.16671C28 3.28265 28.3512 2.43481 28.9763 1.80968C29.6014 1.18456 30.4493 0.833374 31.3333 0.833374H3.83333C2.94928 0.833374 2.10143 1.18456 1.47631 1.80968C0.851189 2.43481 0.5 3.28265 0.5 4.16671V39.1667H28V37.5C25.5688 37.5 23.2373 36.5343 21.5182 34.8152C19.7991 33.0961 18.8333 30.7645 18.8333 28.3334ZM18.925 8.70837C18.8441 8.51413 18.8397 8.29648 18.9126 8.09911C18.9856 7.90175 19.1305 7.73929 19.3183 7.64435C19.5061 7.5494 19.7228 7.52901 19.925 7.58726C20.1272 7.6455 20.2998 7.77808 20.4083 7.95837L21.3333 9.80004L22.2583 7.95837C22.3668 7.77808 22.5395 7.6455 22.7417 7.58726C22.9439 7.52901 23.1606 7.5494 23.3484 7.64435C23.5362 7.73929 23.6811 7.90175 23.754 8.09911C23.827 8.29648 23.8226 8.51413 23.7417 8.70837L22.2667 11.6667L23.7417 14.625C23.8056 14.7519 23.836 14.893 23.8301 15.0349C23.8241 15.1769 23.782 15.3149 23.7077 15.436C23.6334 15.557 23.5294 15.6571 23.4055 15.7267C23.2816 15.7962 23.1421 15.8329 23 15.8334C22.3417 15.8334 22.2833 15.4334 21.3333 13.5334C20.35 15.5084 20.3167 15.8334 19.6667 15.8334C19.5246 15.8329 19.385 15.7962 19.2612 15.7267C19.1373 15.6571 19.0333 15.557 18.959 15.436C18.8847 15.3149 18.8425 15.1769 18.8366 15.0349C18.8306 14.893 18.8611 14.7519 18.925 14.625L20.4 11.6667L18.925 8.70837ZM5.5 7.50004H10.5C10.721 7.50004 10.933 7.58784 11.0893 7.74412C11.2455 7.9004 11.3333 8.11236 11.3333 8.33337C11.3333 8.55439 11.2455 8.76635 11.0893 8.92263C10.933 9.07891 10.721 9.16671 10.5 9.16671H8.83333V15C8.83333 15.2211 8.74554 15.433 8.58926 15.5893C8.43298 15.7456 8.22101 15.8334 8 15.8334C7.77899 15.8334 7.56703 15.7456 7.41074 15.5893C7.25446 15.433 7.16667 15.2211 7.16667 15V9.16671H5.5C5.27899 9.16671 5.06703 9.07891 4.91074 8.92263C4.75446 8.76635 4.66667 8.55439 4.66667 8.33337C4.66667 8.11236 4.75446 7.9004 4.91074 7.74412C5.06703 7.58784 5.27899 7.50004 5.5 7.50004ZM4.66667 20.8334H11.3333C11.5543 20.8334 11.7663 20.9212 11.9226 21.0775C12.0789 21.2337 12.1667 21.4457 12.1667 21.6667C12.1667 21.8877 12.0789 22.0997 11.9226 22.256C11.7663 22.4122 11.5543 22.5 11.3333 22.5H4.66667C4.44565 22.5 4.23369 22.4122 4.07741 22.256C3.92113 22.0997 3.83333 21.8877 3.83333 21.6667C3.83333 21.4457 3.92113 21.2337 4.07741 21.0775C4.23369 20.9212 4.44565 20.8334 4.66667 20.8334ZM16.3333 35H4.66667C4.44565 35 4.23369 34.9122 4.07741 34.756C3.92113 34.5997 3.83333 34.3877 3.83333 34.1667C3.83333 33.9457 3.92113 33.7337 4.07741 33.5775C4.23369 33.4212 4.44565 33.3334 4.66667 33.3334H16.3333C16.5543 33.3334 16.7663 33.4212 16.9226 33.5775C17.0789 33.7337 17.1667 33.9457 17.1667 34.1667C17.1667 34.3877 17.0789 34.5997 16.9226 34.756C16.7663 34.9122 16.5543 35 16.3333 35ZM16.3333 30.8334H4.66667C4.44565 30.8334 4.23369 30.7456 4.07741 30.5893C3.92113 30.433 3.83333 30.2211 3.83333 30C3.83333 29.779 3.92113 29.5671 4.07741 29.4108C4.23369 29.2545 4.44565 29.1667 4.66667 29.1667H16.3333C16.5543 29.1667 16.7663 29.2545 16.9226 29.4108C17.0789 29.5671 17.1667 29.779 17.1667 30C17.1667 30.2211 17.0789 30.433 16.9226 30.5893C16.7663 30.7456 16.5543 30.8334 16.3333 30.8334ZM16.3333 26.6667H4.66667C4.44565 26.6667 4.23369 26.5789 4.07741 26.4226C3.92113 26.2664 3.83333 26.0544 3.83333 25.8334C3.83333 25.6124 3.92113 25.4004 4.07741 25.2441C4.23369 25.0878 4.44565 25 4.66667 25H16.3333C16.5543 25 16.7663 25.0878 16.9226 25.2441C17.0789 25.4004 17.1667 25.6124 17.1667 25.8334C17.1667 26.0544 17.0789 26.2664 16.9226 26.4226C16.7663 26.5789 16.5543 26.6667 16.3333 26.6667ZM16.3833 15.2917L15.9667 14.1667H13.3667L12.95 15.2917C12.8726 15.4995 12.7159 15.668 12.5143 15.7602C12.3127 15.8524 12.0828 15.8607 11.875 15.7834C11.6672 15.706 11.4987 15.5493 11.4065 15.3477C11.3143 15.1461 11.306 14.9161 11.3833 14.7084L13.8833 8.04171C13.9417 7.88083 14.0482 7.74184 14.1884 7.64361C14.3285 7.54538 14.4955 7.49269 14.6667 7.49269C14.8378 7.49269 15.0048 7.54538 15.145 7.64361C15.2851 7.74184 15.3916 7.88083 15.45 8.04171L17.95 14.7084C18.0274 14.9161 18.019 15.1461 17.9268 15.3477C17.8346 15.5493 17.6661 15.706 17.4583 15.7834C17.2506 15.8607 17.0206 15.8524 16.819 15.7602C16.6174 15.668 16.4607 15.4995 16.3833 15.2917Z" fill="#1455AC"/>
<path d="M29.6667 5V7.5H34.6667V5C34.6667 4.33696 34.4033 3.70107 33.9344 3.23223C33.4656 2.76339 32.8297 2.5 32.1667 2.5C31.5036 2.5 30.8677 2.76339 30.3989 3.23223C29.9301 3.70107 29.6667 4.33696 29.6667 5Z" fill="#1455AC"/>
<path d="M28 20.8334C26.5166 20.8334 25.0666 21.2732 23.8332 22.0974C22.5999 22.9215 21.6386 24.0928 21.0709 25.4632C20.5032 26.8337 20.3547 28.3417 20.6441 29.7966C20.9335 31.2514 21.6478 32.5878 22.6967 33.6367C23.7456 34.6856 25.082 35.3999 26.5368 35.6893C27.9917 35.9787 29.4997 35.8301 30.8701 35.2625C32.2406 34.6948 33.4119 33.7335 34.236 32.5002C35.0601 31.2668 35.5 29.8167 35.5 28.3334C35.5 26.3443 34.7098 24.4366 33.3033 23.0301C31.8968 21.6236 29.9891 20.8334 28 20.8334ZM23.8333 25.8334C23.8333 25.5037 23.9311 25.1815 24.1142 24.9074C24.2974 24.6333 24.5577 24.4197 24.8622 24.2936C25.1667 24.1674 25.5019 24.1344 25.8252 24.1987C26.1485 24.263 26.4454 24.4218 26.6785 24.6549C26.9116 24.888 27.0703 25.1849 27.1346 25.5082C27.199 25.8315 27.1659 26.1666 27.0398 26.4712C26.9137 26.7757 26.7 27.036 26.426 27.2192C26.1519 27.4023 25.8296 27.5 25.5 27.5C25.058 27.5 24.6341 27.3244 24.3215 27.0119C24.0089 26.6993 23.8333 26.2754 23.8333 25.8334ZM25.9833 32.1917C25.8452 32.3663 25.6434 32.4789 25.4222 32.5047C25.2011 32.5305 24.9788 32.4673 24.8042 32.3292C24.6296 32.1911 24.517 31.9892 24.4912 31.7681C24.4654 31.547 24.5285 31.3246 24.6667 31.15L30 24.4834C30.1381 24.3066 30.3409 24.1919 30.5635 24.1645C30.7863 24.1372 31.0107 24.1994 31.1875 24.3375C31.3643 24.4757 31.479 24.6784 31.5064 24.9011C31.5337 25.1238 31.4715 25.3482 31.3333 25.525L25.9833 32.1917ZM30.5 32.5C30.1704 32.5 29.8481 32.4023 29.5741 32.2192C29.3 32.036 29.0864 31.7757 28.9602 31.4712C28.8341 31.1666 28.8011 30.8315 28.8654 30.5082C28.9297 30.1849 29.0884 29.8879 29.3215 29.6549C29.5546 29.4218 29.8516 29.263 30.1749 29.1987C30.4982 29.1344 30.8333 29.1674 31.1378 29.2936C31.4424 29.4197 31.7027 29.6333 31.8858 29.9074C32.0689 30.1815 32.1667 30.5037 32.1667 30.8334C32.1667 31.2754 31.9911 31.6993 31.6785 32.0119C31.366 32.3244 30.942 32.5 30.5 32.5Z" fill="#1455AC"/>
</svg>
