<svg width="34" height="34" viewBox="0 0 34 34" fill="none" xmlns="http://www.w3.org/2000/svg">
<g clip-path="url(#clip0_20978_40226)">
<path d="M31.1668 14.8537V26.9167C31.1646 28.7946 30.4176 30.595 29.0897 31.9229C27.7618 33.2508 25.9614 33.9977 24.0835 34H9.91683C8.0389 33.9977 6.23854 33.2508 4.91064 31.9229C3.58275 30.595 2.83575 28.7946 2.8335 26.9167V7.08333C2.83575 5.20541 3.58275 3.40504 4.91064 2.07714C6.23854 0.749249 8.0389 0.00224946 9.91683 0L16.3131 0C16.544 0 16.7721 0.0184167 17.0002 0.034V9.91667C17.0002 11.0438 17.4479 12.1248 18.245 12.9219C19.042 13.7189 20.123 14.1667 21.2502 14.1667H31.1328C31.1484 14.3947 31.1668 14.6228 31.1668 14.8537ZM19.8335 26.9167C19.8335 26.5409 19.6842 26.1806 19.4186 25.9149C19.1529 25.6493 18.7926 25.5 18.4168 25.5H11.3335C10.9578 25.5 10.5974 25.6493 10.3318 25.9149C10.0661 26.1806 9.91683 26.5409 9.91683 26.9167C9.91683 27.2924 10.0661 27.6527 10.3318 27.9184C10.5974 28.1841 10.9578 28.3333 11.3335 28.3333H18.4168C18.7926 28.3333 19.1529 28.1841 19.4186 27.9184C19.6842 27.6527 19.8335 27.2924 19.8335 26.9167ZM24.0835 21.25C24.0835 20.8743 23.9342 20.5139 23.6686 20.2483C23.4029 19.9826 23.0426 19.8333 22.6668 19.8333H11.3335C10.9578 19.8333 10.5974 19.9826 10.3318 20.2483C10.0661 20.5139 9.91683 20.8743 9.91683 21.25C9.91683 21.6257 10.0661 21.9861 10.3318 22.2517C10.5974 22.5174 10.9578 22.6667 11.3335 22.6667H22.6668C23.0426 22.6667 23.4029 22.5174 23.6686 22.2517C23.9342 21.9861 24.0835 21.6257 24.0835 21.25Z" fill="#A6A6A6" fill-opacity="0.35"/>
<path d="M19.8335 0.652344V9.91734C19.8335 10.2931 19.9828 10.6534 20.2484 10.9191C20.5141 11.1848 20.8744 11.334 21.2502 11.334H30.5152C30.0206 10.0234 29.2522 8.83342 28.2612 7.84334L23.3256 2.90484C22.3343 1.91503 21.144 1.14724 19.8335 0.652344Z" fill="#999999" fill-opacity="0.7"/>
</g>
<defs>
<clipPath id="clip0_20978_40226">
<rect width="34" height="34" fill="white"/>
</clipPath>
</defs>
</svg>
