<svg width="19" height="19" viewBox="0 0 19 19" fill="none" xmlns="http://www.w3.org/2000/svg">
<path d="M18.5 4.625C18.5 2.07506 16.4253 0 13.875 0C12.0086 0 10.4009 1.1135 9.67073 2.70903L8.20183 2.0415C8.02826 1.96279 7.82888 1.96279 7.65532 2.0415L0.38746 5.34508C0.151306 5.45218 0 5.68705 0 5.94643V14.5357C0 14.7951 0.151306 15.03 0.38746 15.1371L7.65532 18.4406C7.7421 18.48 7.83534 18.5 7.92857 18.5C8.02181 18.5 8.11504 18.48 8.20183 18.4406L15.4697 15.1371C15.7058 15.03 15.8571 14.7951 15.8571 14.5357V8.79733C17.4169 8.0531 18.5 6.46507 18.5 4.625ZM7.92857 3.36874L9.29867 3.9911C9.27 4.19891 9.25 4.40941 9.25 4.625C9.25 5.69991 9.62181 6.68788 10.2394 7.47413L7.92857 8.52412L2.25733 5.94643L7.92857 3.36874ZM1.32143 6.9723L7.26786 9.67525V16.8131L1.32143 14.1105V6.9723ZM14.5357 14.1105L8.58929 16.8131V9.67525L11.2813 8.45177C12.0215 8.95513 12.9143 9.25 13.875 9.25C14.0999 9.25 14.3193 9.22838 14.5357 9.19721V14.1105ZM13.875 7.92857C12.0535 7.92857 10.5714 6.44648 10.5714 4.625C10.5714 2.80352 12.0535 1.32143 13.875 1.32143C15.6965 1.32143 17.1786 2.80352 17.1786 4.625C17.1786 6.44648 15.6965 7.92857 13.875 7.92857Z" fill="#46A046"/>
<path d="M15.8572 3.96261H14.5357V2.64118C14.5357 2.27598 14.2399 1.98047 13.875 1.98047C13.5102 1.98047 13.2143 2.27598 13.2143 2.64118V3.96261H11.8929C11.528 3.96261 11.2322 4.25813 11.2322 4.62333C11.2322 4.98853 11.528 5.28404 11.8929 5.28404H13.2143V6.60547C13.2143 6.97067 13.5102 7.26618 13.875 7.26618C14.2399 7.26618 14.5357 6.97067 14.5357 6.60547V5.28404H15.8572C16.2221 5.28404 16.5179 4.98853 16.5179 4.62333C16.5179 4.25813 16.2221 3.96261 15.8572 3.96261Z" fill="#46A046"/>
</svg>
